<svg id="Group_3" data-name="Group 3" xmlns="http://www.w3.org/2000/svg" width="30.897" height="21.729" viewBox="0 0 30.897 21.729">
  <path id="Path_9" data-name="Path 9" d="M7.877,0Q7.783.96,9.25.924l.633,1.261-.392.329L9.858,2.5A53.508,53.508,0,0,0,6.309,18.228l-.17,1.919.342.311-.025.32-.392.329L6.43,21.1l-.392.329.172,2.23-.051.639q-2.026,2.124-2.123,3.243l-1.467.036L.8,26.98l.562-2.248L0,23.489l.782-4.806.491-5.756.809-.977L2.2,10.67l-.342-.311.025-.32.734-.018.025-.32L2.3,9.391l1.617-6.1L3.554,3.3l.41-.329L4.115,1.05,3.774.739,3.8.419ZM3.7,5.847,3.523,8.085l.367-.009.177-2.238ZM3.062,9.054l-.152,1.918.367-.009.152-1.918ZM2.45,11.941,2.3,13.859l.367-.009.152-1.918ZM2.1,24.714l-.145,1.6.784-.658.094-.96Z" transform="translate(1.716 18.486) rotate(-100)" fill="#e5282c"/>
  <path id="Path_10" data-name="Path 10" d="M5.517,0Q5.475.658,6.652.69l.551.894L6.9,1.8l.294.008A30.393,30.393,0,0,0,4.886,12.5l-.07,1.316.285.228-.009.219-.3.211.294.008-.3.211.215,1.543-.019.439q-1.554,1.384-1.593,2.152L2.2,18.8.766,18.316l.374-1.527L0,15.879.463,12.6l.2-3.948.616-.642.052-.877L1.042,6.9l.009-.219L1.64,6.7l.009-.219-.285-.228L2.453,2.111,2.158,2.1l.318-.211L2.532.576,2.247.348,2.256.129ZM2.364,3.865,2.3,5.4l.294.008.065-1.536Zm-.4,2.185L1.906,7.367l.294.008.056-1.316ZM1.57,8.016,1.514,9.332l.294.008.056-1.316Zm.159,8.789-.061,1.1.607-.422.043-.658Z" transform="translate(8.955 6.528) rotate(-65)" fill="#e5282c"/>
  <path id="Path_11" data-name="Path 11" d="M5.519,18.832q-.043-.658,1.134-.69l.551-.894-.3-.211.294-.008a30.416,30.416,0,0,1-2.309-10.7L4.815,5.013,5.1,4.785l-.009-.219-.3-.211.294-.008-.3-.211.214-1.544-.019-.439Q3.42.768,3.38,0L2.2.033.766.512,1.14,2.039,0,2.949.463,6.231l.2,3.949.616.642.052.877-.285.228.009.219.588-.016.009.219-.285.228L2.454,16.72l-.294.008.318.211.056,1.316-.285.228.009.219ZM2.365,14.965,2.3,13.43l.294-.008.065,1.536Zm-.4-2.186-.056-1.316.294-.008.056,1.316Zm-.393-1.966L1.515,9.5l.294-.008.056,1.316Zm.157-8.791L1.667.926l.607.423.043.658Z" transform="translate(28.198 7.995) rotate(68)" fill="#e5282c"/>
</svg>
